<svg width="32" height="32" viewBox="0 0 32 32" fill="none" xmlns="http://www.w3.org/2000/svg">
<g clip-path="url(#clip0_103_17)">
<path d="M31.87 12.07C31.4438 9.03817 30.0424 6.22743 27.8775 4.06252C25.7126 1.89761 22.9018 0.496182 19.87 0.0700006C18.0042 -0.179268 16.1074 -0.0497343 14.2928 0.450856C12.4783 0.951446 10.7833 1.81281 9.30931 2.98345C7.83528 4.15408 6.61245 5.60995 5.71395 7.26399C4.81544 8.91803 4.25972 10.7363 4.07999 12.61L0.0799946 20.55C-0.0291888 20.7681 -0.0548898 21.0186 0.00772871 21.2544C0.0703472 21.4901 0.216967 21.6948 0.419995 21.83L2.99999 23.54V31C2.99999 31.2652 3.10535 31.5196 3.29289 31.7071C3.48042 31.8946 3.73478 32 3.99999 32H25C25.2652 32 25.5196 31.8946 25.7071 31.7071C25.8946 31.5196 26 31.2652 26 31C26.0506 27.9441 27.1245 24.9935 29.05 22.62C30.2064 21.1421 31.0523 19.4458 31.5369 17.6329C32.0215 15.8199 32.1348 13.9278 31.87 12.07ZM27.47 21.36C25.4712 23.8258 24.262 26.8367 24 30H16.6C17.1862 29.5355 17.7104 28.9977 18.16 28.4L18.76 27.6C18.9191 27.3878 18.9875 27.1211 18.9499 26.8586C18.9124 26.596 18.7722 26.3591 18.56 26.2C18.3478 26.0409 18.0811 25.9725 17.8186 26.01C17.556 26.0476 17.3191 26.1878 17.16 26.4L16.56 27.2C15.912 28.064 15.0729 28.7663 14.1084 29.2521C13.1438 29.7378 12.0799 29.9938 11 30H4.99999V23C4.99914 22.8353 4.95762 22.6733 4.87912 22.5285C4.80061 22.3838 4.68756 22.2606 4.54999 22.17L2.28999 20.66L5.70999 13.81C5.88764 13.6312 5.99122 13.3919 5.99999 13.14C6.13067 11.2687 6.69824 9.45407 7.65714 7.84181C8.61604 6.22954 9.93957 4.86454 11.5215 3.85636C13.1034 2.84818 14.8996 2.22491 16.766 2.03657C18.6324 1.84823 20.517 2.10007 22.2684 2.77188C24.0199 3.44369 25.5894 4.51676 26.8511 5.90494C28.1128 7.29313 29.0314 8.95777 29.5333 10.7652C30.0352 12.5727 30.1064 14.4727 29.7411 16.3127C29.3758 18.1526 28.5843 19.8813 27.43 21.36H27.47Z" fill="white"/>
<path d="M18 4C16.0222 4 14.0888 4.58649 12.4443 5.6853C10.7998 6.78412 9.51807 8.3459 8.76119 10.1732C8.00432 12.0004 7.80628 14.0111 8.19214 15.9509C8.57799 17.8907 9.5304 19.6725 10.9289 21.0711C12.3274 22.4696 14.1093 23.422 16.0491 23.8079C17.9889 24.1937 19.9996 23.9957 21.8268 23.2388C23.6541 22.4819 25.2159 21.2002 26.3147 19.5557C27.4135 17.9112 28 15.9778 28 14C28 12.6868 27.7413 11.3864 27.2388 10.1732C26.7362 8.95991 25.9996 7.85752 25.0711 6.92893C24.1425 6.00035 23.0401 5.26375 21.8268 4.7612C20.6136 4.25866 19.3132 4 18 4ZM18 22C16.4177 22 14.871 21.5308 13.5554 20.6518C12.2398 19.7727 11.2145 18.5233 10.609 17.0615C10.0035 15.5997 9.84503 13.9911 10.1537 12.4393C10.4624 10.8874 11.2243 9.46197 12.3431 8.34315C13.462 7.22433 14.8874 6.4624 16.4393 6.15372C17.9911 5.84504 19.5996 6.00346 21.0615 6.60896C22.5233 7.21447 23.7727 8.23984 24.6517 9.55544C25.5308 10.871 26 12.4177 26 14C26 16.1217 25.1571 18.1566 23.6568 19.6569C22.1566 21.1571 20.1217 22 18 22Z" fill="white"/>
<path d="M18 11H20C20.2652 11 20.5196 10.8946 20.7071 10.7071C20.8946 10.5196 21 10.2652 21 10C21 9.73478 20.8946 9.48043 20.7071 9.29289C20.5196 9.10536 20.2652 9 20 9H19C19 8.73478 18.8946 8.48043 18.7071 8.29289C18.5196 8.10536 18.2652 8 18 8C17.7348 8 17.4804 8.10536 17.2929 8.29289C17.1054 8.48043 17 8.73478 17 9V9.18C16.3386 9.41998 15.7826 9.88477 15.4292 10.4931C15.0758 11.1015 14.9475 11.8147 15.0666 12.5081C15.1857 13.2015 15.5448 13.831 16.081 14.2865C16.6172 14.742 17.2965 14.9945 18 15C18.2652 15 18.5196 15.1054 18.7071 15.2929C18.8946 15.4804 19 15.7348 19 16C19 16.2652 18.8946 16.5196 18.7071 16.7071C18.5196 16.8946 18.2652 17 18 17H16C15.7348 17 15.4804 17.1054 15.2929 17.2929C15.1054 17.4804 15 17.7348 15 18C15 18.2652 15.1054 18.5196 15.2929 18.7071C15.4804 18.8946 15.7348 19 16 19H17C17 19.2652 17.1054 19.5196 17.2929 19.7071C17.4804 19.8946 17.7348 20 18 20C18.2652 20 18.5196 19.8946 18.7071 19.7071C18.8946 19.5196 19 19.2652 19 19V18.82C19.6614 18.58 20.2174 18.1152 20.5708 17.5069C20.9242 16.8985 21.0525 16.1853 20.9334 15.4919C20.8143 14.7985 20.4552 14.169 19.919 13.7135C19.3828 13.258 18.7035 13.0055 18 13C17.7348 13 17.4804 12.8946 17.2929 12.7071C17.1054 12.5196 17 12.2652 17 12C17 11.7348 17.1054 11.4804 17.2929 11.2929C17.4804 11.1054 17.7348 11 18 11Z" fill="white"/>
</g>
<defs>
<clipPath id="clip0_103_17">
<rect width="32" height="32" fill="white"/>
</clipPath>
</defs>
</svg>
